<?xml version="1.0" standalone="no"?>
<!DOCTYPE svg PUBLIC "-//W3C//DTD SVG 20010904//EN"
 "http://www.w3.org/TR/2001/REC-SVG-20010904/DTD/svg10.dtd">
<svg version="1.0" xmlns="http://www.w3.org/2000/svg"
 width="300.000000pt" height="300.000000pt" viewBox="0 0 300.000000 300.000000"
 preserveAspectRatio="xMidYMid meet">
<metadata>
Created by potrace 1.10, written by Peter Selinger 2001-2011
</metadata>
<g transform="translate(0.000000,300.000000) scale(0.100000,-0.100000)"
fill="#000000" stroke="none">
<path d="M1375 2465 c-183 -34 -309 -117 -322 -213 -4 -31 0 -44 20 -68 23
-26 31 -29 84 -29 48 1 70 7 125 38 87 48 136 66 224 78 181 25 363 -57 448
-202 l19 -32 -29 9 c-16 5 -56 9 -89 8 -108 -2 -210 -72 -269 -184 -16 -30
-38 -65 -49 -77 -20 -23 -61 -30 -83 -15 -22 14 -44 71 -60 158 -30 164 -52
198 -99 154 -15 -14 -35 -39 -46 -57 -19 -30 -23 -32 -62 -27 -23 3 -80 7
-126 7 l-85 2 -12 49 c-31 123 -91 87 -149 -89 -110 -333 50 -707 370 -865
106 -52 196 -73 320 -72 316 1 590 204 687 507 20 60 23 91 22 215 0 129 -3
153 -26 217 -93 262 -302 442 -565 488 -101 18 -153 18 -248 0z m275 -46 c153
-33 322 -146 412 -277 167 -243 155 -589 -29 -812 -90 -109 -232 -200 -368
-235 -78 -20 -252 -20 -328 0 -193 51 -355 182 -443 360 -58 117 -78 211 -71
335 7 124 55 280 86 280 4 0 16 -18 26 -41 10 -22 26 -44 34 -49 9 -4 73 -10
144 -12 l127 -3 41 45 c47 52 51 49 68 -50 20 -118 38 -166 78 -200 30 -27 42
-31 71 -26 42 6 75 35 110 96 44 77 88 125 143 155 47 25 65 29 137 29 111 1
127 23 74 107 -76 119 -221 192 -387 192 -106 1 -171 -15 -280 -69 -118 -58
-144 -62 -179 -32 -25 21 -26 26 -16 53 15 40 47 73 94 97 137 70 300 91 456
57z"/>
<path d="M923 1880 c-35 -21 -49 -55 -39 -95 7 -27 59 -65 87 -65 23 0 79 66
79 91 0 23 -60 89 -81 89 -8 0 -29 -9 -46 -20z m75 -32 c19 -19 15 -66 -7 -78
-31 -16 -49 -12 -67 15 -15 23 -15 27 0 50 18 27 54 33 74 13z"/>
<path d="M1145 1863 c-34 -38 -33 -81 3 -116 45 -43 98 -33 127 24 44 83 -66
161 -130 92z m87 -20 c25 -22 23 -59 -4 -77 -12 -9 -26 -16 -30 -16 -14 0 -48
39 -48 55 0 18 35 55 52 55 6 0 20 -7 30 -17z"/>
<path d="M1182 910 c-90 -55 -99 -194 -16 -259 40 -31 123 -29 162 4 37 31 49
72 28 93 -19 19 -41 10 -58 -25 -18 -39 -78 -45 -102 -11 -23 32 -21 100 5
132 28 36 59 33 97 -10 33 -37 48 -40 66 -11 24 37 -54 107 -119 107 -16 0
-45 -9 -63 -20z"/>
<path d="M1498 913 c-22 -27 -99 -233 -96 -257 2 -13 12 -22 26 -24 18 -3 26
4 37 32 15 34 17 36 65 36 47 0 50 -2 64 -35 11 -26 21 -35 39 -35 14 0 28 7
31 17 7 18 -77 237 -102 266 -8 9 -23 17 -32 17 -9 0 -24 -8 -32 -17z m50
-116 c17 -46 16 -47 -19 -47 -24 0 -30 3 -25 16 3 9 9 27 12 40 8 33 18 30 32
-9z"/>
<path d="M1646 904 c-10 -25 12 -44 50 -44 l34 0 0 -99 c0 -55 3 -106 6 -115
7 -18 49 -22 60 -5 3 6 6 58 5 115 l-2 104 40 0 c28 0 43 5 49 18 20 37 5 42
-118 42 -100 0 -119 -3 -124 -16z"/>
</g>
</svg>
