<?xml version="1.0" encoding="UTF-8"?>
<svg xmlns="http://www.w3.org/2000/svg" xmlns:xlink="http://www.w3.org/1999/xlink" width="96pt" height="96pt" viewBox="0 0 96 96" version="1.1">
<defs>
<linearGradient id="linear0" gradientUnits="userSpaceOnUse" x1="19" y1="24.858" x2="19" y2="49.041" spreadMethod="reflect" gradientTransform="matrix(1.5,0,0,1.5,0,0)">
<stop offset="0" style="stop-color:rgb(42.745098%,78.039217%,100%);stop-opacity:1;"/>
<stop offset="1" style="stop-color:rgb(90.196079%,67.058825%,100%);stop-opacity:1;"/>
</linearGradient>
<linearGradient id="linear1" gradientUnits="userSpaceOnUse" x1="19.382" y1="15.423" x2="19.382" y2="23.341" spreadMethod="reflect" gradientTransform="matrix(1.5,0,0,1.5,0,0)">
<stop offset="0" style="stop-color:rgb(42.745098%,78.039217%,100%);stop-opacity:1;"/>
<stop offset="1" style="stop-color:rgb(90.196079%,67.058825%,100%);stop-opacity:1;"/>
</linearGradient>
<linearGradient id="linear2" gradientUnits="userSpaceOnUse" x1="37.386002" y1="14.125" x2="37.386002" y2="49.525002" spreadMethod="reflect" gradientTransform="matrix(1.5,0,0,1.5,0,0)">
<stop offset="0" style="stop-color:rgb(42.745098%,78.039217%,100%);stop-opacity:1;"/>
<stop offset="1" style="stop-color:rgb(90.196079%,67.058825%,100%);stop-opacity:1;"/>
</linearGradient>
<linearGradient id="linear3" gradientUnits="userSpaceOnUse" x1="32" y1="6.5" x2="32" y2="57.5" spreadMethod="reflect" gradientTransform="matrix(1.5,0,0,1.5,0,0)">
<stop offset="0" style="stop-color:rgb(10.196079%,42.745098%,100%);stop-opacity:1;"/>
<stop offset="1" style="stop-color:rgb(78.431374%,13.333334%,100%);stop-opacity:1;"/>
</linearGradient>
</defs>
<g id="surface2052">
<path style=" stroke:none;fill-rule:evenodd;fill:url(#linear0);" d="M 33 72 L 33 39 L 24 39 L 24 72 Z M 33 72 "/>
<path style=" stroke:none;fill-rule:evenodd;fill:url(#linear1);" d="M 29.035156 34.5 C 32.804688 34.5 35.152344 32.289062 35.152344 29.167969 C 35.082031 25.980469 32.804688 23.695312 29.109375 23.695312 C 25.410156 23.695312 22.996094 25.90625 22.996094 29.097656 C 22.996094 32.21875 25.339844 34.5 28.964844 34.5 Z M 29.035156 34.5 "/>
<path style=" stroke:none;fill-rule:evenodd;fill:url(#linear2);" d="M 40.417969 72 L 51 72 L 51 53.867188 C 51 52.894531 51.183594 51.925781 51.46875 51.230469 C 52.25 49.285156 54.285156 47.277344 57.269531 47.277344 C 61.179688 47.277344 63 50.257812 63 54.628906 L 63 72 L 72 72 L 72 53.382812 C 72 43.398438 67.375 39.136719 60.261719 39.136719 C 54.433594 39.136719 52.578125 42 51.15625 45 L 51 45 L 51 39 L 40.417969 39 C 40.5625 42 40.15625 72 40.15625 72 Z M 40.417969 72 "/>
<path style=" stroke:none;fill-rule:nonzero;fill:url(#linear3);" d="M 75 85.5 L 21 85.5 C 15.210938 85.5 10.5 80.789062 10.5 75 L 10.5 21 C 10.5 15.210938 15.210938 10.5 21 10.5 L 75 10.5 C 80.789062 10.5 85.5 15.210938 85.5 21 L 85.5 75 C 85.5 80.789062 80.789062 85.5 75 85.5 Z M 21 13.5 C 16.863281 13.5 13.5 16.863281 13.5 21 L 13.5 75 C 13.5 79.136719 16.863281 82.5 21 82.5 L 75 82.5 C 79.136719 82.5 82.5 79.136719 82.5 75 L 82.5 21 C 82.5 16.863281 79.136719 13.5 75 13.5 Z M 21 13.5 "/>
</g>
</svg>
